<mxfile host="app.diagrams.net" modified="2020-06-08T10:14:14.653Z" agent="5.0 (Windows NT 10.0; Win64; x64) AppleWebKit/537.36 (KHTML, like Gecko) Chrome/83.0.4103.97 Safari/537.36" etag="oruOiJ-fPIIVn3KOqvWd" version="13.1.14" type="github">
  <diagram id="k-Dp4irHhROaE-YeM_xx" name="Page-1">
    <mxGraphModel dx="1259" dy="500" grid="1" gridSize="10" guides="1" tooltips="1" connect="1" arrows="1" fold="1" page="1" pageScale="1" pageWidth="827" pageHeight="1169" math="0" shadow="0">
      <root>
        <mxCell id="0" />
        <mxCell id="1" parent="0" />
        <mxCell id="wsXQ-pi4-2g_H5PwyIqt-1" value="Block" style="swimlane;fontStyle=1;align=center;verticalAlign=top;childLayout=stackLayout;horizontal=1;startSize=26;horizontalStack=0;resizeParent=1;resizeParentMax=0;resizeLast=0;collapsible=1;marginBottom=0;" parent="1" vertex="1">
          <mxGeometry x="510" y="140" width="160" height="210" as="geometry">
            <mxRectangle x="510" y="140" width="70" height="26" as="alternateBounds" />
          </mxGeometry>
        </mxCell>
        <mxCell id="wsXQ-pi4-2g_H5PwyIqt-2" value="+ index: String&#xa;&#xa;+ timestamp: String&#xa;&#xa;+ transactions: Table&#xa;&#xa;+ previous_hash: String&#xa;&#xa;+ nonce: String&#xa;" style="text;strokeColor=none;fillColor=none;align=left;verticalAlign=top;spacingLeft=4;spacingRight=4;overflow=hidden;rotatable=0;points=[[0,0.5],[1,0.5]];portConstraint=eastwest;" parent="wsXQ-pi4-2g_H5PwyIqt-1" vertex="1">
          <mxGeometry y="26" width="160" height="144" as="geometry" />
        </mxCell>
        <mxCell id="wsXQ-pi4-2g_H5PwyIqt-3" value="" style="line;strokeWidth=1;fillColor=none;align=left;verticalAlign=middle;spacingTop=-1;spacingLeft=3;spacingRight=3;rotatable=0;labelPosition=right;points=[];portConstraint=eastwest;" parent="wsXQ-pi4-2g_H5PwyIqt-1" vertex="1">
          <mxGeometry y="170" width="160" height="8" as="geometry" />
        </mxCell>
        <mxCell id="wsXQ-pi4-2g_H5PwyIqt-4" value="+ compute_hash(): String" style="text;strokeColor=none;fillColor=none;align=left;verticalAlign=top;spacingLeft=4;spacingRight=4;overflow=hidden;rotatable=0;points=[[0,0.5],[1,0.5]];portConstraint=eastwest;" parent="wsXQ-pi4-2g_H5PwyIqt-1" vertex="1">
          <mxGeometry y="178" width="160" height="32" as="geometry" />
        </mxCell>
        <mxCell id="wsXQ-pi4-2g_H5PwyIqt-6" value="Blockchain" style="swimlane;fontStyle=1;align=center;verticalAlign=top;childLayout=stackLayout;horizontal=1;startSize=26;horizontalStack=0;resizeParent=1;resizeParentMax=0;resizeLast=0;collapsible=1;marginBottom=0;" parent="1" vertex="1">
          <mxGeometry x="60" y="40" width="240" height="456" as="geometry" />
        </mxCell>
        <mxCell id="wsXQ-pi4-2g_H5PwyIqt-7" value="+ transactions: Table&#xa;&#xa;+ chain_data: Table &#xa;&#xa;+ node_address: Table" style="text;strokeColor=none;fillColor=none;align=left;verticalAlign=top;spacingLeft=4;spacingRight=4;overflow=hidden;rotatable=0;points=[[0,0.5],[1,0.5]];portConstraint=eastwest;" parent="wsXQ-pi4-2g_H5PwyIqt-6" vertex="1">
          <mxGeometry y="26" width="240" height="94" as="geometry" />
        </mxCell>
        <mxCell id="wsXQ-pi4-2g_H5PwyIqt-8" value="" style="line;strokeWidth=1;fillColor=none;align=left;verticalAlign=middle;spacingTop=-1;spacingLeft=3;spacingRight=3;rotatable=0;labelPosition=right;points=[];portConstraint=eastwest;" parent="wsXQ-pi4-2g_H5PwyIqt-6" vertex="1">
          <mxGeometry y="120" width="240" height="8" as="geometry" />
        </mxCell>
        <mxCell id="wsXQ-pi4-2g_H5PwyIqt-9" value="+ __init__()&#xa; &#xa;+ create_genesis_block(): String&#xa;&#xa;+ last_block(): String &#xa;&#xa;+ proof_of_work(Block): String&#xa;&#xa;+ add_block(block, proof): Boolean&#xa;&#xa;+ is_valid_proof(block, block_hash): String&#xa;&#xa;+ add_new_transaction(transaction): Table&#xa;&#xa;+ mine(): Boolean&#xa;&#xa;+ register_batch(): Table&#xa;&#xa;+ mine_transactions(): String &#xa;&#xa;+ unconfirmed_transactions(): Table &#xa;" style="text;strokeColor=none;fillColor=none;align=left;verticalAlign=top;spacingLeft=4;spacingRight=4;overflow=hidden;rotatable=0;points=[[0,0.5],[1,0.5]];portConstraint=eastwest;" parent="wsXQ-pi4-2g_H5PwyIqt-6" vertex="1">
          <mxGeometry y="128" width="240" height="328" as="geometry" />
        </mxCell>
        <mxCell id="wsXQ-pi4-2g_H5PwyIqt-25" value="Transaction" style="swimlane;fontStyle=1;align=center;verticalAlign=top;childLayout=stackLayout;horizontal=1;startSize=26;horizontalStack=0;resizeParent=1;resizeParentMax=0;resizeLast=0;collapsible=1;marginBottom=0;strokeColor=#000000;" parent="1" vertex="1">
          <mxGeometry x="340" y="520" width="160" height="208" as="geometry" />
        </mxCell>
        <mxCell id="wsXQ-pi4-2g_H5PwyIqt-26" value="+ batch_id: Integer&#xa;&#xa;+ sender_id: Integer&#xa;&#xa;+ recipient_id: Integer&#xa;&#xa;+ quantity: Integer&#xa;&#xa;+ status: String &#xa;&#xa;+ timestamp: Time &#xa;&#xa;" style="text;strokeColor=none;fillColor=none;align=left;verticalAlign=top;spacingLeft=4;spacingRight=4;overflow=hidden;rotatable=0;points=[[0,0.5],[1,0.5]];portConstraint=eastwest;" parent="wsXQ-pi4-2g_H5PwyIqt-25" vertex="1">
          <mxGeometry y="26" width="160" height="174" as="geometry" />
        </mxCell>
        <mxCell id="wsXQ-pi4-2g_H5PwyIqt-27" value="" style="line;strokeWidth=1;fillColor=none;align=left;verticalAlign=middle;spacingTop=-1;spacingLeft=3;spacingRight=3;rotatable=0;labelPosition=right;points=[];portConstraint=eastwest;" parent="wsXQ-pi4-2g_H5PwyIqt-25" vertex="1">
          <mxGeometry y="200" width="160" height="8" as="geometry" />
        </mxCell>
        <mxCell id="wsXQ-pi4-2g_H5PwyIqt-29" value="" style="endArrow=diamondThin;endFill=1;endSize=24;html=1;exitX=0.563;exitY=0;exitDx=0;exitDy=0;exitPerimeter=0;entryX=1;entryY=0.5;entryDx=0;entryDy=0;" parent="1" source="wsXQ-pi4-2g_H5PwyIqt-25" target="wsXQ-pi4-2g_H5PwyIqt-2" edge="1">
          <mxGeometry width="160" relative="1" as="geometry">
            <mxPoint x="550" y="340" as="sourcePoint" />
            <mxPoint x="720" y="230" as="targetPoint" />
            <Array as="points">
              <mxPoint x="430" y="440" />
              <mxPoint x="610" y="440" />
              <mxPoint x="720" y="440" />
              <mxPoint x="720" y="240" />
            </Array>
          </mxGeometry>
        </mxCell>
        <mxCell id="wsXQ-pi4-2g_H5PwyIqt-30" value="&lt;b&gt;&lt;font style=&quot;font-size: 18px&quot; face=&quot;Times New Roman&quot;&gt;0..1&lt;/font&gt;&lt;/b&gt;" style="text;html=1;align=center;verticalAlign=middle;resizable=0;points=[];autosize=1;" parent="1" vertex="1">
          <mxGeometry x="690" y="210" width="40" height="20" as="geometry" />
        </mxCell>
        <mxCell id="wsXQ-pi4-2g_H5PwyIqt-31" value="&lt;font style=&quot;font-size: 18px&quot; face=&quot;Times New Roman&quot;&gt;*&lt;/font&gt;" style="text;html=1;align=center;verticalAlign=middle;resizable=0;points=[];autosize=1;" parent="1" vertex="1">
          <mxGeometry x="440" y="496" width="20" height="20" as="geometry" />
        </mxCell>
        <mxCell id="wsXQ-pi4-2g_H5PwyIqt-32" value="" style="endArrow=diamondThin;endFill=1;endSize=24;html=1;" parent="1" edge="1">
          <mxGeometry width="160" relative="1" as="geometry">
            <mxPoint x="510" y="242" as="sourcePoint" />
            <mxPoint x="300" y="242" as="targetPoint" />
          </mxGeometry>
        </mxCell>
        <mxCell id="wsXQ-pi4-2g_H5PwyIqt-34" value="&lt;font style=&quot;font-size: 18px&quot; face=&quot;Times New Roman&quot;&gt;&lt;b&gt;1&lt;/b&gt;&lt;/font&gt;" style="text;html=1;align=center;verticalAlign=middle;resizable=0;points=[];autosize=1;" parent="1" vertex="1">
          <mxGeometry x="310" y="217" width="20" height="20" as="geometry" />
        </mxCell>
        <mxCell id="wsXQ-pi4-2g_H5PwyIqt-36" value="&lt;span style=&quot;font-family: &amp;#34;times new roman&amp;#34; ; font-size: 18px&quot;&gt;*&lt;/span&gt;" style="text;html=1;align=center;verticalAlign=middle;resizable=0;points=[];autosize=1;" parent="1" vertex="1">
          <mxGeometry x="490" y="217" width="20" height="20" as="geometry" />
        </mxCell>
        <mxCell id="wsXQ-pi4-2g_H5PwyIqt-37" value="" style="endArrow=diamondThin;endFill=1;endSize=24;html=1;exitX=-0.012;exitY=0.309;exitDx=0;exitDy=0;exitPerimeter=0;entryX=0.585;entryY=0.999;entryDx=0;entryDy=0;entryPerimeter=0;" parent="1" source="wsXQ-pi4-2g_H5PwyIqt-26" target="wsXQ-pi4-2g_H5PwyIqt-9" edge="1">
          <mxGeometry width="160" relative="1" as="geometry">
            <mxPoint x="203" y="600" as="sourcePoint" />
            <mxPoint x="203" y="480" as="targetPoint" />
            <Array as="points">
              <mxPoint x="200" y="600" />
            </Array>
          </mxGeometry>
        </mxCell>
        <mxCell id="wsXQ-pi4-2g_H5PwyIqt-38" value="&lt;span style=&quot;font-size: 18px&quot;&gt;&lt;font face=&quot;Times New Roman&quot;&gt;*&lt;/font&gt;&lt;/span&gt;" style="text;html=1;align=center;verticalAlign=middle;resizable=0;points=[];autosize=1;" parent="1" vertex="1">
          <mxGeometry x="319" y="579" width="20" height="20" as="geometry" />
        </mxCell>
        <mxCell id="wsXQ-pi4-2g_H5PwyIqt-39" value="&lt;b&gt;&lt;font style=&quot;font-size: 18px&quot;&gt;1&lt;/font&gt;&lt;/b&gt;" style="text;html=1;align=center;verticalAlign=middle;resizable=0;points=[];autosize=1;" parent="1" vertex="1">
          <mxGeometry x="210" y="500" width="30" height="20" as="geometry" />
        </mxCell>
      </root>
    </mxGraphModel>
  </diagram>
</mxfile>
